<?xml version="1.0" standalone="no"?>
<!DOCTYPE svg PUBLIC "-//W3C//DTD SVG 20010904//EN"
 "http://www.w3.org/TR/2001/REC-SVG-20010904/DTD/svg10.dtd">
<svg version="1.0" xmlns="http://www.w3.org/2000/svg"
 width="1024.000000pt" height="1024.000000pt" viewBox="0 0 1024.000000 1024.000000"
 preserveAspectRatio="xMidYMid meet">
<metadata>
Created by potrace 1.16, written by Peter Selinger 2001-2019
</metadata>
<g transform="translate(0.000000,1024.000000) scale(0.100000,-0.100000)"
fill="#000000" stroke="none">
<path d="M4845 8020 c-512 -47 -1019 -235 -1437 -533 -183 -129 -427 -359
-583 -547 -61 -73 -229 -319 -279 -407 -165 -293 -279 -615 -335 -944 -38
-225 -44 -313 -38 -609 4 -234 9 -305 27 -400 60 -320 131 -546 250 -795 146
-308 312 -543 570 -809 378 -389 910 -683 1460 -806 216 -49 329 -62 570 -67
201 -4 260 -2 409 16 206 26 360 58 536 112 267 81 569 229 795 387 483 339
870 822 1076 1344 230 582 274 1160 135 1788 -13 56 -61 233 -71 260 -120 324
-280 626 -444 840 -141 185 -233 286 -376 415 -264 237 -548 416 -860 543
-244 99 -440 153 -700 192 -162 24 -543 35 -705 20z m453 -20 c369 -25 715
-111 1035 -255 624 -281 1133 -784 1424 -1404 30 -64 59 -124 64 -133 5 -10 9
-25 9 -33 0 -9 6 -26 14 -38 19 -28 60 -143 80 -223 23 -91 76 -371 76 -404 0
-16 4 -40 9 -53 10 -26 22 -181 25 -342 3 -115 -11 -304 -29 -395 -3 -14 -7
-45 -9 -70 -3 -25 -9 -58 -15 -73 -8 -21 -8 -26 1 -21 8 5 9 2 5 -10 -15 -38
-45 -162 -46 -188 -1 -10 -7 -18 -13 -18 -8 0 -14 -14 -14 -32 -2 -43 -9 -76
-23 -111 -6 -16 -11 -35 -11 -43 0 -8 -10 -19 -22 -24 -17 -6 -19 -9 -6 -9 14
-1 16 -6 9 -23 -5 -13 -16 -22 -25 -22 -9 1 -14 -2 -11 -6 3 -5 2 -10 -2 -13
-5 -2 -2 -2 5 -1 17 5 15 -5 -9 -64 -12 -28 -26 -49 -33 -48 -6 2 -8 1 -3 -1
4 -3 7 -12 7 -20 0 -12 -7 -14 -27 -8 -26 6 -27 5 -9 -8 19 -14 19 -16 -8 -71
-15 -32 -37 -66 -48 -76 -11 -10 -18 -25 -15 -33 7 -20 -21 -59 -36 -50 -8 4
-7 1 1 -9 11 -14 9 -20 -15 -42 -28 -26 -63 -35 -63 -15 0 6 9 8 23 4 22 -6
22 -6 2 11 -19 16 -19 16 10 10 28 -6 29 -5 11 9 -11 8 -29 13 -40 9 -17 -4
-18 -3 -6 5 12 9 10 11 -10 11 -23 1 -23 2 10 19 25 14 40 16 53 9 10 -5 23
-7 30 -5 7 3 0 8 -15 12 -16 4 -28 12 -28 17 0 6 7 8 14 5 10 -4 13 -1 9 9 -6
16 -11 13 -93 -58 -13 -12 -21 -14 -26 -6 -4 6 0 16 9 23 9 7 14 15 10 18 -3
4 -12 -1 -20 -11 -12 -16 -14 -16 -27 1 -7 9 -17 17 -21 17 -4 0 -2 -6 4 -13
6 -8 8 -17 4 -20 -3 -4 -1 -7 5 -7 7 0 12 -5 12 -11 0 -8 -4 -8 -15 1 -8 6
-20 8 -26 4 -16 -9 25 -26 45 -18 8 3 17 1 20 -5 4 -6 13 -8 20 -5 7 3 19 -2
26 -11 8 -10 9 -15 1 -15 -6 0 -11 3 -11 8 0 11 -68 13 -75 2 -3 -6 -16 -10
-28 -10 -20 0 -20 0 -1 16 17 14 17 15 1 10 -10 -3 -23 -6 -28 -6 -5 0 -3 -13
6 -29 8 -17 11 -32 6 -36 -5 -3 -12 4 -16 15 -7 20 -25 28 -25 10 0 -5 5 -10
12 -10 6 0 8 -3 4 -7 -4 -5 -12 -8 -18 -8 -6 0 -17 -10 -26 -23 -14 -21 -13
-22 11 -22 14 0 29 5 33 11 4 8 -1 9 -16 4 -15 -5 -20 -4 -16 4 4 6 20 11 36
11 16 0 32 5 35 10 3 6 11 10 16 10 6 0 3 -7 -6 -16 -9 -9 -13 -19 -10 -22 3
-3 12 3 19 14 8 10 17 16 21 13 12 -13 -25 -37 -70 -43 -25 -4 -45 -12 -45
-18 0 -7 -5 -6 -15 2 -17 14 -39 4 -31 -16 3 -8 0 -13 -6 -11 -6 1 -13 -4 -16
-12 -3 -10 0 -12 11 -8 9 3 21 -1 29 -10 11 -14 11 -16 -2 -11 -55 20 -59 19
-74 -10 -8 -15 -33 -47 -56 -70 -34 -33 -40 -46 -34 -64 6 -20 5 -21 -10 -9
-14 12 -16 11 -16 -3 0 -9 -7 -16 -15 -16 -8 0 -15 -4 -15 -9 0 -12 -47 -61
-59 -61 -5 0 -13 -5 -17 -12 -4 -7 -3 -8 4 -4 7 4 12 2 12 -3 0 -6 -5 -11 -10
-11 -6 0 -30 -20 -54 -45 -25 -25 -46 -45 -49 -45 -2 0 -21 -15 -41 -33 -27
-25 -33 -36 -24 -45 8 -8 5 -9 -11 -5 -12 3 -21 1 -21 -6 0 -6 -7 -11 -15 -11
-8 0 -15 -4 -15 -10 0 -5 -7 -10 -15 -10 -8 0 -15 -4 -15 -9 0 -5 -25 -26 -55
-46 -31 -21 -52 -43 -48 -49 3 -6 3 -8 -2 -4 -5 5 -22 -3 -39 -16 -17 -12 -45
-30 -63 -40 -23 -11 -31 -21 -27 -34 5 -13 4 -14 -4 -3 -8 11 -15 10 -41 -8
-17 -12 -31 -27 -31 -32 0 -5 -3 -8 -7 -7 -14 3 -55 -13 -105 -43 -27 -16 -56
-29 -64 -29 -9 0 -18 -9 -21 -20 -4 -13 -14 -20 -30 -20 -13 0 -70 -20 -126
-44 -146 -63 -331 -120 -492 -151 -16 -3 -41 -8 -55 -10 -128 -26 -410 -46
-560 -39 -376 15 -763 114 -1092 279 -47 24 -89 41 -92 37 -3 -3 -14 3 -25 12
-13 12 -21 14 -26 6 -3 -5 -11 -8 -16 -4 -6 3 -35 7 -65 8 -33 1 -59 8 -64 15
-5 9 -10 10 -14 2 -4 -6 -4 -16 0 -23 4 -7 3 -8 -4 -4 -7 4 -12 14 -12 23 0
13 -2 13 -17 2 -12 -10 -17 -11 -20 -2 -2 7 -10 10 -17 7 -8 -3 -21 2 -30 11
-8 9 -28 18 -43 19 -39 5 -41 6 -18 17 17 7 15 8 -10 6 -19 -1 -29 3 -28 11 2
7 -8 12 -23 12 -18 0 -25 4 -21 14 3 8 -5 18 -19 25 -13 6 -24 15 -24 21 0 6
-5 8 -10 5 -6 -4 -9 -1 -8 7 2 7 14 18 28 25 l25 12 -24 1 c-29 0 -21 12 9 14
11 0 19 6 18 11 -2 6 -7 9 -12 7 -5 -2 -6 3 -3 11 6 17 2 24 -46 65 -21 17
-33 32 -27 32 5 0 19 -9 30 -20 10 -10 21 -16 24 -11 5 8 -44 58 -119 121 -22
19 -40 38 -40 43 0 13 -36 37 -46 31 -5 -3 -9 3 -9 14 0 10 -9 27 -21 38 -11
10 -36 40 -56 66 -19 27 -40 45 -46 41 -6 -4 -8 0 -4 9 3 9 -2 23 -13 33 -33
30 -176 247 -240 364 -58 107 -170 357 -170 380 0 6 -4 19 -10 29 -10 19 -61
189 -80 267 -6 28 -18 60 -25 72 -9 13 -10 23 -4 25 6 2 4 32 -6 83 -40 213
-49 461 -25 695 6 61 8 116 4 122 -4 6 -3 8 4 4 17 -10 11 36 -7 59 -15 18
-15 19 2 6 22 -17 34 -7 17 14 -10 12 -10 15 0 15 7 0 10 6 7 14 -3 8 -1 17 6
19 9 3 8 8 -2 20 -7 10 -9 17 -4 17 14 0 46 144 33 148 -5 2 -10 8 -10 13 0 4
7 6 15 3 14 -6 19 6 18 43 -1 7 3 10 8 7 13 -8 11 10 -3 24 -9 9 -8 12 5 12 9
0 17 2 17 4 0 2 3 11 6 20 3 9 1 16 -6 16 -6 0 -9 -4 -6 -8 3 -5 -5 -8 -17 -7
-13 1 -23 9 -24 21 -3 18 -3 18 5 0 8 -19 9 -19 15 4 5 19 9 21 20 12 14 -12
27 -6 27 12 0 6 -5 4 -11 -4 -8 -12 -10 -8 -6 15 3 17 9 38 13 48 3 10 3 17
-2 16 -22 -4 -35 2 -28 12 3 6 0 15 -7 20 -12 7 -11 9 1 10 10 0 9 3 -5 10
l-20 9 20 -3 c12 -1 21 -11 23 -25 2 -12 10 -22 19 -22 11 0 14 -6 9 -26 -5
-17 -3 -23 4 -19 5 3 10 17 10 29 0 13 7 29 15 36 22 19 18 33 -9 28 -13 -3
-23 0 -22 6 0 6 -3 11 -9 11 -5 0 -9 -3 -8 -7 2 -4 -4 -5 -13 -1 -12 4 -12 8
-4 13 9 5 6 10 -9 15 -12 4 -19 11 -15 18 4 7 -5 0 -20 -15 -27 -28 -43 -37
-31 -18 3 6 0 13 -9 16 -9 3 -12 12 -9 21 5 12 3 14 -8 8 -10 -6 -11 -5 -3 4
12 13 44 5 44 -11 0 -5 5 -6 10 -3 17 11 11 25 -10 25 -22 0 -39 28 -23 39 6
3 13 13 16 21 4 12 6 11 6 -3 1 -11 6 -15 13 -11 8 5 9 0 5 -15 -4 -17 -2 -21
9 -17 7 3 13 2 12 -2 -5 -16 24 -52 40 -51 15 1 15 2 -1 6 -13 3 -16 10 -11
25 4 15 3 18 -6 13 -9 -5 -11 -4 -6 4 4 6 0 14 -8 17 -9 3 -14 10 -11 14 3 5
1 11 -5 15 -5 3 -15 16 -20 28 -10 21 -10 21 4 3 15 -19 42 -22 88 -11 23 6
28 4 34 -19 3 -14 10 -23 15 -20 5 3 9 -3 9 -13 0 -14 3 -12 13 7 14 27 4 80
-15 80 -6 0 -8 7 -4 15 3 9 0 15 -8 15 -9 0 -12 -8 -9 -25 3 -13 10 -23 16
-22 7 1 13 -8 15 -20 2 -13 -2 -23 -8 -23 -6 0 -9 4 -6 8 8 13 -27 37 -54 37
-14 0 -27 -6 -30 -12 -4 -9 -14 -5 -34 12 -16 14 -26 28 -23 32 4 4 13 -2 21
-12 14 -20 36 -13 36 13 0 13 2 13 14 -3 13 -19 14 -18 13 8 -2 19 -6 26 -16
22 -7 -3 -20 0 -29 7 -13 12 -14 10 -3 -10 11 -20 9 -44 -3 -31 -14 15 -14 48
0 65 8 10 12 13 8 5 -5 -10 -3 -12 5 -7 7 5 10 14 7 22 -7 19 12 67 24 59 6
-4 7 1 3 11 -5 14 -3 16 13 10 15 -6 17 -5 7 5 -19 19 -16 34 3 18 15 -12 16
-11 10 9 -5 14 -3 22 4 22 6 0 9 4 5 10 -7 11 41 90 55 90 5 0 7 7 4 15 -4 9
0 15 10 15 10 0 13 6 10 15 -4 10 0 15 11 15 9 0 13 5 9 11 -3 6 -3 14 2 18 5
3 19 26 30 51 12 25 38 65 58 88 20 24 36 48 36 53 0 4 17 26 38 48 20 22 62
69 92 105 30 36 61 65 68 65 7 1 11 5 8 10 -5 8 13 28 76 84 86 78 145 137
140 141 -2 3 7 10 21 15 14 5 57 37 96 71 39 33 71 59 71 56 0 -3 15 8 32 25
18 16 37 29 42 29 10 0 82 46 104 67 7 7 24 16 38 19 13 3 24 10 24 14 0 10
174 99 298 151 342 147 724 227 1127 237 28 1 114 -3 193 -8z"/>
<path d="M4920 7754 c-19 -2 -80 -9 -135 -15 -163 -17 -371 -63 -525 -116
-145 -50 -420 -175 -489 -223 -14 -9 -55 -36 -91 -59 -239 -152 -454 -341
-634 -559 -37 -45 -72 -80 -77 -77 -5 4 -6 -1 -3 -9 4 -11 -48 -95 -96 -153
-5 -7 -22 -34 -36 -60 -15 -26 -35 -59 -46 -72 -10 -13 -18 -32 -18 -42 0 -19
-16 -34 -23 -22 -2 5 -2 2 0 -6 2 -7 -10 -36 -26 -65 -67 -117 -179 -434 -207
-585 -3 -14 -7 -27 -9 -31 -11 -17 -45 -273 -55 -413 -20 -265 6 -561 71 -799
17 -62 33 -128 36 -145 3 -21 11 -33 20 -33 12 0 14 -7 9 -32 -3 -20 -2 -28 2
-20 10 14 52 -89 52 -125 0 -33 22 -86 30 -73 8 13 33 -38 30 -61 -2 -8 -2
-23 -1 -34 1 -15 3 -17 10 -6 6 9 20 -9 48 -66 22 -43 57 -106 78 -139 21 -32
38 -67 37 -76 0 -10 4 -21 10 -24 7 -5 8 -2 4 7 -10 19 10 -6 102 -131 98
-133 262 -312 383 -418 175 -152 520 -370 719 -452 41 -17 84 -36 95 -42 22
-12 210 -71 265 -83 19 -4 40 -11 45 -15 6 -4 53 -15 105 -24 52 -10 115 -21
140 -26 160 -32 384 -43 595 -30 117 7 390 52 430 70 31 14 208 72 225 74 8 0
17 3 20 6 13 13 82 40 90 35 5 -3 28 3 52 14 24 11 58 25 76 32 21 7 29 15 22
19 -12 7 24 22 64 26 10 1 21 6 25 11 3 5 44 29 91 53 47 24 88 47 91 52 3 6
9 9 13 9 11 -2 152 95 216 148 33 28 64 51 68 51 9 0 243 229 302 295 25 28
60 68 79 90 82 92 230 322 320 495 123 239 231 566 261 790 6 47 14 105 18
130 13 94 6 502 -11 615 -32 213 -89 446 -133 542 -8 17 -14 38 -14 46 0 21
-83 207 -144 322 -60 114 -142 243 -205 325 -23 30 -61 80 -83 110 -69 93
-346 360 -471 453 -366 275 -777 447 -1234 518 -132 20 -486 34 -583 23z m482
-85 c230 -27 519 -96 633 -150 22 -10 84 -37 138 -60 98 -42 370 -186 417
-221 328 -245 556 -484 757 -795 230 -356 374 -833 390 -1294 18 -520 -130
-1060 -405 -1479 -42 -64 -81 -124 -87 -132 -108 -167 -375 -436 -595 -599
-65 -48 -236 -159 -245 -159 -2 0 -31 -16 -65 -35 -68 -38 -253 -122 -356
-161 -183 -69 -398 -115 -654 -140 -157 -16 -194 -17 -345 -5 -510 40 -903
174 -1321 451 -356 236 -610 511 -846 915 -33 57 -44 78 -100 205 -88 196
-159 451 -194 695 -21 150 -29 426 -15 560 23 228 33 284 72 435 72 281 181
535 330 775 162 259 369 486 613 670 61 46 123 93 137 104 15 11 93 57 175
103 309 172 631 275 994 318 182 21 392 21 572 -1z"/>
<path d="M6635 6676 c-119 -47 -212 -85 -340 -141 -122 -54 -230 -100 -690
-293 -104 -44 -242 -102 -305 -130 -63 -27 -203 -87 -310 -132 -379 -161
-1312 -575 -1750 -777 -107 -50 -220 -101 -250 -115 -103 -46 -160 -113 -160
-185 0 -54 31 -98 88 -127 56 -28 664 -229 912 -300 86 -25 80 -15 125 -206
32 -138 106 -398 141 -495 49 -136 88 -147 191 -54 37 33 77 65 87 71 16 9 18
8 12 -8 -17 -42 -67 -335 -73 -422 -5 -80 -4 -95 12 -112 32 -35 77 -26 137
26 52 45 86 80 376 377 l145 147 26 -16 c57 -38 244 -185 429 -341 24 -20 69
-55 100 -79 32 -24 111 -88 177 -144 141 -118 208 -155 269 -148 110 13 170
81 205 233 11 50 36 158 55 240 33 142 103 462 146 660 25 119 136 628 159
735 11 47 29 130 40 185 20 98 64 303 102 480 20 90 69 323 135 635 45 210 54
340 26 390 -22 41 -73 70 -122 69 -19 0 -62 -11 -95 -23z m141 -11 c26 -11 40
-26 56 -61 26 -59 23 -85 -42 -400 -98 -478 -380 -1781 -405 -1869 -7 -27 -19
-77 -25 -110 -7 -33 -15 -67 -18 -75 -3 -8 -4 -21 -3 -27 1 -7 -3 -13 -9 -13
-6 0 -8 -5 -5 -10 6 -10 -12 -116 -23 -134 -3 -5 -7 -23 -9 -40 -11 -89 -22
-114 -46 -108 -19 5 -19 4 -6 -10 7 -9 18 -13 23 -10 5 3 6 0 1 -7 -4 -7 -17
-10 -29 -7 -19 5 -20 4 -3 -8 21 -16 23 -30 2 -22 -8 3 -15 1 -15 -4 0 -6 5
-10 11 -10 5 0 8 -4 5 -9 -3 -4 -16 -8 -28 -7 -23 2 -58 -20 -58 -36 0 -4 7
-8 15 -8 21 0 19 -20 -2 -21 -10 -1 -22 -1 -26 0 -5 1 -6 -3 -2 -9 8 -12 37
-9 47 5 4 6 8 2 8 -9 0 -11 -5 -16 -13 -13 -8 3 -20 1 -28 -4 -10 -6 -4 -9 19
-9 23 0 31 -4 26 -12 -4 -6 -3 -8 4 -5 5 4 8 16 5 27 -3 11 -1 20 4 20 5 0 8
-12 7 -27 -1 -16 -2 -38 -3 -49 -1 -19 -6 -22 -41 -20 -22 1 -40 -2 -40 -7 0
-4 -5 -5 -11 -2 -15 10 -4 17 29 20 41 3 58 15 41 26 -8 5 -24 9 -36 9 -21 0
-28 10 -24 33 1 5 -8 6 -19 2 -24 -8 -25 -2 -4 19 8 9 11 16 5 16 -6 0 -15 -9
-20 -19 -9 -15 -6 -22 14 -35 29 -19 32 -41 9 -50 -20 -8 -54 2 -54 15 0 13
14 11 28 -3 9 -9 15 -9 25 1 10 11 9 13 -6 8 -10 -4 -16 -3 -12 3 3 5 -3 18
-15 30 -21 21 -40 26 -40 10 0 -5 7 -10 15 -10 8 0 15 -4 15 -10 0 -5 -2 -10
-4 -10 -2 0 -12 -3 -20 -6 -12 -5 -15 -2 -10 10 10 27 -25 31 -70 7 -39 -21
-32 -22 33 -4 17 4 22 2 17 -6 -4 -6 -12 -9 -17 -6 -5 4 -9 3 -9 -2 0 -4 -21
-9 -47 -10 -26 0 -49 -6 -51 -11 -2 -6 -9 -9 -16 -6 -7 3 -13 -2 -13 -10 0 -8
3 -14 6 -12 3 2 15 -5 25 -15 24 -23 18 -24 -36 -2 -35 14 -38 18 -22 24 16 6
16 8 2 8 -9 1 -21 -6 -26 -16 -9 -15 -11 -14 -21 5 -7 14 -8 23 -1 27 5 3 10
0 10 -7 0 -10 2 -11 8 0 5 7 16 10 25 6 11 -4 19 0 23 10 3 9 10 16 16 16 5 0
6 -4 3 -10 -4 -6 2 -7 17 -1 13 5 22 15 20 21 -2 8 3 10 13 6 9 -3 24 3 35 14
11 11 20 15 20 8 0 -9 3 -9 11 -1 6 6 17 9 24 7 6 -3 17 2 24 10 7 8 20 13 29
10 9 -2 7 1 -5 7 -21 11 -22 13 -5 26 15 13 15 13 -5 3 -17 -8 -23 -8 -23 1 0
7 -3 10 -6 7 -3 -4 -1 -15 5 -26 8 -16 7 -21 -5 -26 -11 -4 -15 -2 -11 7 3 8
1 20 -5 28 -8 11 -9 11 -5 -2 9 -29 -8 -43 -28 -22 -17 17 -18 17 -12 1 3 -10
2 -18 -4 -18 -6 0 -7 -4 -4 -10 8 -13 -21 -13 -46 0 -14 8 -19 7 -19 -2 0 -9
-3 -9 -10 2 -8 13 -10 12 -10 -3 0 -14 5 -17 20 -12 15 5 18 3 14 -9 -7 -19
-9 -19 -35 -5 -12 6 -18 17 -15 25 3 8 2 12 -3 9 -5 -3 -17 5 -25 17 -9 12
-16 18 -16 12 0 -5 6 -16 13 -23 10 -12 9 -13 -7 -7 -16 6 -17 4 -6 -9 8 -10
16 -12 19 -6 4 6 12 2 19 -10 14 -22 10 -24 -42 -33 -38 -7 -39 -7 -20 -51 13
-32 18 -36 25 -22 13 22 42 10 36 -14 -3 -12 0 -19 8 -19 19 0 28 17 13 23 -8
3 -6 6 5 6 32 2 15 -32 -22 -44 -16 -5 -21 -4 -17 4 4 6 5 11 2 11 -2 0 -12 3
-21 6 -16 6 -16 5 -1 -24 9 -17 16 -33 16 -37 0 -11 -25 1 -42 20 -18 20 -18
20 -16 -10 3 -31 12 -35 57 -20 14 4 21 3 18 -2 -4 -6 5 -15 19 -22 42 -19 20
-31 -40 -22 -4 0 -6 8 -2 16 3 9 0 15 -10 15 -9 0 -18 -9 -21 -20 -3 -11 -9
-17 -14 -14 -5 3 -7 10 -4 15 3 5 -1 6 -9 3 -12 -4 -13 -11 -6 -24 5 -9 6 -21
2 -25 -4 -4 3 -3 15 4 14 7 24 8 28 1 3 -5 17 -10 31 -10 16 0 24 -6 24 -17 0
-14 -2 -15 -9 -4 -9 13 -22 12 -66 -4 l-20 -8 20 16 c29 24 8 21 -32 -4 -19
-12 -36 -19 -39 -16 -3 3 4 8 15 12 27 8 27 22 -1 31 -31 10 -46 26 -40 46 6
23 -13 23 -24 1 -4 -10 -7 -21 -6 -24 3 -15 -40 5 -53 25 -9 11 -18 20 -20 18
-3 -1 -13 1 -21 6 -14 8 -12 10 11 16 19 5 31 3 36 -6 4 -7 11 -9 16 -5 12 13
-20 27 -47 22 -20 -4 -29 1 -43 22 -10 16 -16 20 -13 11 3 -10 1 -18 -4 -18
-6 0 -10 6 -10 14 0 8 -4 18 -10 21 -6 4 -7 -1 -3 -11 5 -13 0 -12 -25 6 -30
22 -45 39 -22 25 6 -3 10 -4 10 0 0 3 -12 10 -26 15 -14 6 -23 14 -19 19 3 5
1 12 -5 16 -5 3 -10 1 -10 -5 0 -6 -13 -1 -30 11 -16 12 -26 27 -23 33 3 6 3
8 -2 4 -9 -9 -61 17 -72 35 -4 7 -25 26 -45 41 -21 16 -35 33 -31 39 3 5 1 7
-5 3 -8 -5 -117 74 -142 104 -3 3 -29 23 -58 44 -29 21 -49 43 -45 48 3 7 1 8
-5 4 -9 -5 -32 11 -98 69 -7 6 -30 25 -53 43 -22 19 -39 38 -35 43 3 5 -1 6
-8 4 -7 -3 -46 25 -87 63 l-73 69 15 29 c9 16 40 54 69 85 68 72 211 226 373
404 71 77 152 165 181 195 29 30 68 71 86 91 51 54 158 169 319 339 80 85 172
184 204 220 61 67 123 134 260 280 155 164 175 188 175 214 0 15 -8 30 -19 36
-51 27 -61 21 -386 -215 -76 -55 -166 -119 -199 -143 -34 -23 -75 -53 -92 -65
-18 -12 -78 -56 -135 -97 -148 -108 -327 -236 -374 -268 -22 -14 -74 -52 -115
-83 -41 -31 -201 -144 -356 -252 -154 -107 -286 -203 -293 -211 -8 -9 -18 -16
-24 -16 -6 0 -20 -9 -31 -19 -25 -23 -58 -48 -181 -133 -49 -34 -96 -68 -103
-75 -20 -19 -82 -16 -99 5 -8 9 -12 11 -8 5 7 -15 4 -16 -19 -7 -9 3 -16 12
-16 19 0 8 -4 17 -10 20 -6 3 -7 -1 -4 -9 8 -21 -5 -20 -23 2 -8 9 -12 11 -8
5 3 -7 1 -13 -5 -13 -6 0 -13 7 -17 16 -4 12 -8 13 -14 3 -6 -11 -16 -9 -47 9
-22 12 -47 22 -56 22 -9 0 -16 5 -16 10 0 6 -7 10 -15 10 -8 0 -15 6 -15 13 0
9 -2 9 -8 0 -13 -21 -68 -1 -77 28 -4 10 -11 19 -16 19 -6 0 -8 -4 -5 -9 12
-19 -29 -20 -61 -1 -19 11 -38 18 -42 16 -4 -3 -6 9 -5 27 2 18 1 25 -2 16 -7
-23 -46 -29 -83 -13 -32 14 -42 34 -16 34 8 0 15 -8 15 -17 0 -14 2 -15 9 -4
6 9 -1 22 -22 42 -31 30 -52 38 -44 17 2 -7 10 -12 16 -11 6 2 11 -4 11 -12 0
-8 -5 -15 -11 -15 -5 0 -8 -4 -5 -9 3 -4 -5 -7 -17 -6 -12 1 -32 3 -45 4 -14
0 -20 5 -17 12 4 6 13 8 21 5 8 -3 14 1 14 9 0 7 12 23 26 34 21 16 30 19 41
10 7 -7 17 -9 21 -5 4 4 -2 14 -12 22 -16 11 -21 11 -28 1 -4 -6 -8 -8 -8 -3
0 5 -8 2 -18 -7 -10 -10 -22 -14 -25 -10 -4 3 -7 -3 -7 -15 0 -25 -25 -30 -34
-7 -3 8 -12 12 -19 9 -8 -3 -21 1 -28 8 -16 15 -66 48 -73 48 -3 0 -3 -8 1
-17 3 -10 3 -15 -1 -12 -4 4 -9 18 -12 33 -3 19 0 26 11 26 10 0 13 -5 9 -12
-6 -10 -4 -10 8 0 14 11 17 10 23 -7 3 -12 13 -21 20 -21 9 0 12 6 9 15 -4 9
1 18 12 22 16 6 16 7 -2 14 -15 6 -11 8 15 8 30 1 32 3 20 18 -13 15 -11 16
10 10 18 -4 21 -3 12 6 -18 18 -13 36 10 30 19 -5 20 -4 8 16 -8 11 -17 21
-21 21 -5 0 -8 7 -8 15 0 8 -5 15 -10 15 -16 0 -8 -34 10 -43 8 -4 2 -5 -14
-2 -26 5 -28 4 -17 -9 9 -11 10 -24 4 -43 -9 -26 -10 -27 -15 -5 -4 14 -2 20
4 16 6 -4 9 -1 6 7 -2 8 -18 21 -36 29 -17 8 -32 19 -32 23 0 4 9 3 19 -3 11
-5 26 -7 34 -4 17 6 30 44 16 44 -5 0 -9 7 -9 15 0 13 -4 14 -21 5 -11 -7 -23
-9 -26 -7 -2 3 5 8 16 12 12 3 21 10 21 13 0 4 20 14 45 21 25 7 45 17 45 22
0 11 20 8 36 -6 9 -7 9 -12 1 -17 -6 -4 -8 -10 -5 -14 10 -10 58 5 58 17 0 8
-5 7 -15 -1 -12 -10 -15 -10 -15 4 0 19 21 21 38 4 9 -9 18 -5 39 18 15 16 24
21 20 12 -3 -10 -2 -20 3 -23 6 -4 10 3 10 14 0 33 -19 35 -46 4 -26 -28 -26
-28 -18 -3 4 14 7 31 7 37 0 8 12 12 31 10 24 -1 31 2 30 16 -2 21 19 22 36 2
12 -15 11 -16 -12 -19 -21 -2 -15 -31 7 -33 l20 -3 -20 10 c-17 9 -15 10 12 6
22 -4 35 0 45 12 12 15 11 16 -4 3 -16 -11 -18 -11 -18 2 0 8 -7 17 -15 21
-19 7 -19 26 0 26 8 0 15 4 15 9 0 20 -40 3 -399 -168 -25 -12 -50 -21 -57
-21 -6 0 -17 -7 -24 -15 -9 -10 -9 -15 -1 -15 6 0 11 -8 11 -17 -1 -17 -1 -17
-11 0 -5 9 -16 17 -23 17 -23 0 -46 -34 -40 -60 4 -18 3 -21 -4 -11 -6 8 -15
10 -22 6 -7 -4 -4 7 6 25 26 44 66 68 268 160 94 42 236 108 316 145 131 61
667 302 880 395 311 136 528 230 835 362 691 295 754 322 1410 598 129 55 140
57 191 35z m-660 -737 c-23 -39 -78 -100 -124 -138 -60 -50 -92 -80 -85 -81 4
0 -10 -9 -32 -19 -25 -12 -44 -15 -49 -10 -12 12 -4 21 23 23 17 1 21 6 17 23
-8 30 3 61 15 42 5 -7 9 -8 9 -3 0 6 12 12 27 13 15 1 32 7 37 12 7 7 0 8 -22
4 -49 -10 -38 8 23 41 53 27 64 38 48 48 -5 2 -2 2 5 0 7 -1 25 10 39 25 l25
27 -17 -30 c-15 -27 -13 -26 23 10 22 22 37 44 34 49 -3 5 0 6 6 2 7 -4 12 -2
12 5 0 7 3 10 6 6 3 -3 -6 -25 -20 -49z"/>
</g>
</svg>
